<mxfile host="app.diagrams.net" modified="2023-12-02T17:27:16.326Z" agent="Mozilla/5.0 (Windows NT 10.0; Win64; x64) AppleWebKit/537.36 (KHTML, like Gecko) Chrome/119.0.0.0 Safari/537.36" etag="eqURzKJNds1IILYMNv9V" version="22.1.5" type="github">
  <diagram name="第 1 页" id="khmLs58jeUvOhmqPgf9L">
    <mxGraphModel dx="1750" dy="883" grid="1" gridSize="10" guides="1" tooltips="1" connect="1" arrows="1" fold="1" page="1" pageScale="1" pageWidth="827" pageHeight="1169" math="0" shadow="0">
      <root>
        <mxCell id="0" />
        <mxCell id="1" parent="0" />
        <mxCell id="q3gFWJkbwVRjEz614nrL-1" value="Image of camera" style="rounded=0;whiteSpace=wrap;html=1;fontSize=19;strokeWidth=2;" vertex="1" parent="1">
          <mxGeometry x="30" y="240" width="260" height="190" as="geometry" />
        </mxCell>
        <mxCell id="q3gFWJkbwVRjEz614nrL-2" value="image of visualization" style="rounded=0;whiteSpace=wrap;html=1;fontSize=19;strokeWidth=2;" vertex="1" parent="1">
          <mxGeometry x="500" y="240" width="250" height="190" as="geometry" />
        </mxCell>
        <mxCell id="q3gFWJkbwVRjEz614nrL-3" value="Image of compute nodes" style="rounded=0;whiteSpace=wrap;html=1;fontSize=19;strokeWidth=2;" vertex="1" parent="1">
          <mxGeometry x="270" y="20" width="250" height="190" as="geometry" />
        </mxCell>
        <mxCell id="q3gFWJkbwVRjEz614nrL-4" value="Detection with TCMnet" style="text;html=1;align=center;verticalAlign=middle;resizable=0;points=[];autosize=1;strokeColor=none;fillColor=none;fontSize=19;strokeWidth=2;" vertex="1" parent="1">
          <mxGeometry x="285" y="210" width="220" height="40" as="geometry" />
        </mxCell>
        <mxCell id="q3gFWJkbwVRjEz614nrL-5" value="Image Data Capture" style="text;html=1;align=center;verticalAlign=middle;resizable=0;points=[];autosize=1;strokeColor=none;fillColor=none;fontSize=19;strokeWidth=2;" vertex="1" parent="1">
          <mxGeometry x="65" y="440" width="190" height="40" as="geometry" />
        </mxCell>
        <mxCell id="q3gFWJkbwVRjEz614nrL-6" value="Data Upload" style="text;html=1;align=center;verticalAlign=middle;resizable=0;points=[];autosize=1;strokeColor=none;fillColor=none;fontSize=19;strokeWidth=2;" vertex="1" parent="1">
          <mxGeometry x="125" y="75" width="130" height="40" as="geometry" />
        </mxCell>
        <mxCell id="q3gFWJkbwVRjEz614nrL-7" value="Visualization and &lt;br&gt;Quality Monitoring" style="text;html=1;align=center;verticalAlign=middle;resizable=0;points=[];autosize=1;strokeColor=none;fillColor=none;fontSize=19;strokeWidth=2;" vertex="1" parent="1">
          <mxGeometry x="535" y="430" width="180" height="60" as="geometry" />
        </mxCell>
        <mxCell id="q3gFWJkbwVRjEz614nrL-8" value="Results Feedback" style="text;html=1;align=center;verticalAlign=middle;resizable=0;points=[];autosize=1;strokeColor=none;fillColor=none;fontSize=19;strokeWidth=2;" vertex="1" parent="1">
          <mxGeometry x="520" y="75" width="180" height="40" as="geometry" />
        </mxCell>
        <mxCell id="q3gFWJkbwVRjEz614nrL-9" value="Image Visualization" style="text;html=1;align=center;verticalAlign=middle;resizable=0;points=[];autosize=1;strokeColor=none;fillColor=none;fontSize=19;strokeWidth=2;" vertex="1" parent="1">
          <mxGeometry x="300" y="355" width="190" height="40" as="geometry" />
        </mxCell>
        <mxCell id="q3gFWJkbwVRjEz614nrL-10" value="" style="html=1;shadow=0;dashed=0;align=center;verticalAlign=middle;shape=mxgraph.arrows2.bendArrow;dy=10.3;dx=42.8;notch=0;arrowHead=35.6;rounded=0;strokeWidth=2;" vertex="1" parent="1">
          <mxGeometry x="155" y="110" width="100" height="100" as="geometry" />
        </mxCell>
        <mxCell id="q3gFWJkbwVRjEz614nrL-11" value="" style="html=1;shadow=0;dashed=0;align=center;verticalAlign=middle;shape=mxgraph.arrows2.bendArrow;dy=10.3;dx=42.8;notch=0;arrowHead=35.6;rounded=0;rotation=90;strokeWidth=2;" vertex="1" parent="1">
          <mxGeometry x="555" y="110" width="90" height="100" as="geometry" />
        </mxCell>
        <mxCell id="q3gFWJkbwVRjEz614nrL-12" value="" style="html=1;shadow=0;dashed=0;align=center;verticalAlign=middle;shape=mxgraph.arrows2.arrow;dy=0.65;dx=33.4;notch=0;strokeWidth=2;" vertex="1" parent="1">
          <mxGeometry x="332.5" y="310" width="125" height="45" as="geometry" />
        </mxCell>
      </root>
    </mxGraphModel>
  </diagram>
</mxfile>
